Coordinates
version=1
nRows=43
nColumns=12
inDegrees=yes

Units are S.I. units (second, meters, Newtons, ...)
Angles are in degrees

endheader
time	SC_y	SC_z	SC_x	AC_y	AC_z	AC_x	GH_y	GH_z	GH_yy	EL_x	PS_y
       0.0              -45.99          34.05          48.42          41.63         -12.76          12.75          90.57          30.39          148.6          100.6          116.0
   0.01575              -45.99          34.05          48.42          41.63         -12.76          12.75          90.58          30.38          148.6          100.6          116.0
    0.0315              -45.99          34.05          48.41          41.63         -12.75          12.75          90.59          30.38          148.5          100.6          116.0
   0.04725              -45.99          34.04           48.4          41.63         -12.75          12.75           90.6          30.38          148.5          100.6          116.0
     0.063              -45.99          34.04          48.39          41.63         -12.75          12.75          90.61          30.38          148.5          100.6          116.0
   0.07874              -45.99          34.04          48.39          41.63         -12.75          12.74          90.62          30.37          148.5          100.7          116.0
   0.09449              -45.99          34.04          48.38          41.63         -12.75          12.74          90.64          30.37          148.5          100.7          115.9
    0.1102              -45.99          34.03          48.37          41.63         -12.75          12.74          90.65          30.37          148.4          100.7          115.9
     0.126              -45.99          34.03          48.36          41.63         -12.75          12.74          90.66          30.36          148.4          100.7          115.9
    0.1417              -45.99          34.02          48.35          41.62         -12.74          12.74          90.68          30.36          148.4          100.7          115.9
    0.1575              -45.99          34.02          48.33          41.62         -12.74          12.74           90.7          30.36          148.3          100.7          115.9
    0.1732              -45.99          34.02          48.32          41.62         -12.74          12.73          90.71          30.35          148.3          100.7          115.9
     0.189               -46.0          34.01          48.31          41.62         -12.74          12.73          90.73          30.35          148.3          100.7          115.8
    0.2047               -46.0          34.01          48.29          41.62         -12.73          12.73          90.75          30.34          148.2          100.7          115.8
    0.2205               -46.0           34.0          48.28          41.62         -12.73          12.73          90.77          30.34          148.2          100.7          115.8
    0.2362               -46.0          33.99          48.26          41.62         -12.73          12.72           90.8          30.33          148.2          100.8          115.8
     0.252               -46.0          33.99          48.24          41.61         -12.73          12.72          90.82          30.32          148.1          100.8          115.7
    0.2677               -46.0          33.98          48.22          41.61         -12.72          12.72          90.85          30.32          148.1          100.8          115.7
    0.2835               -46.0          33.97           48.2          41.61         -12.72          12.71          90.88          30.31          148.0          100.8          115.7
    0.2992               -46.0          33.96          48.17          41.61         -12.71          12.71          90.92           30.3          147.9          100.8          115.6
     0.315               -46.0          33.95          48.15          41.61         -12.71           12.7          90.96          30.29          147.9          100.8          115.6
    0.3307               -46.0          33.94          48.12           41.6          -12.7           12.7           91.0          30.28          147.8          100.9          115.6
    0.3465               -46.0          33.93          48.09           41.6          -12.7          12.69          91.04          30.27          147.7          100.9          115.5
    0.3622               -46.0          33.92          48.05           41.6         -12.69          12.68          91.09          30.26          147.6          100.9          115.5
     0.378               -46.0          33.91          48.01          41.59         -12.69          12.68          91.15          30.24          147.5          101.0          115.4
    0.3937               -46.0          33.89          47.97          41.59         -12.68          12.67          91.21          30.23          147.4          101.0          115.3
    0.4095              -46.01          33.87          47.91          41.58         -12.67          12.66          91.28          30.21          147.3          101.0          115.3
    0.4252              -46.01          33.85          47.86          41.58         -12.66          12.65          91.36          30.19          147.2          101.1          115.2
     0.441              -46.01          33.83          47.79          41.57         -12.65          12.64          91.45          30.17          147.0          101.1          115.1
    0.4567              -46.01          33.81          47.72          41.57         -12.64          12.63          91.55          30.14          146.8          101.2          115.0
    0.4725              -46.01          33.78          47.64          41.56         -12.62          12.61          91.67          30.11          146.6          101.3          114.9
    0.4882              -46.02          33.74          47.55          41.55         -12.61          12.59           91.8          30.08          146.4          101.3          114.7
     0.504              -46.02          33.71          47.44          41.54         -12.59          12.57          91.95          30.04          146.1          101.4          114.6
    0.5197              -46.02          33.66          47.31          41.53         -12.56          12.55          92.13           30.0          145.8          101.5          114.4
    0.5355              -46.03          33.61          47.16          41.51         -12.54          12.52          92.34          29.95          145.4          101.6          114.2
    0.5512              -46.03          33.55          46.98           41.5         -12.51          12.49          92.58          29.88          145.0          101.8          113.9
     0.567              -46.04          33.47          46.78          41.48         -12.47          12.46          92.87          29.81          144.4          102.0          113.6
    0.5827              -46.05          33.39          46.53          41.45         -12.43          12.41          93.22          29.72          143.8          102.2          113.2
    0.5985              -46.05          33.28          46.22          41.42         -12.38          12.36          93.64          29.62          143.0          102.4          112.8
    0.6142              -46.07          33.15          45.85          41.39         -12.31          12.29          94.16          29.49          142.1          102.7          112.2
      0.63              -46.08          32.99           45.4          41.35         -12.24          12.21           94.8          29.33          141.0          103.1          111.6
    0.6457              -46.09          32.79          44.83          41.29         -12.14          12.11          95.59          29.13          139.5          103.5          110.8
    0.6615              -46.12          32.54          44.12          41.22         -12.01          11.98          96.59          28.88          137.7          104.1          109.7
